<svg width="16" height="16" viewBox="0 0 16 16" fill="none" xmlns="http://www.w3.org/2000/svg">
<path fill-rule="evenodd" clip-rule="evenodd" d="M7.33325 3.23332C5.86992 2.55199 3.65325 2.18999 1.57792 3.88599C1.50146 3.94851 1.43985 4.02723 1.39754 4.11647C1.35522 4.2057 1.33327 4.30323 1.33325 4.40199V12.6667C1.33327 12.7928 1.3691 12.9164 1.43656 13.023C1.50403 13.1297 1.60037 13.2149 1.71439 13.269C1.8284 13.323 1.95541 13.3436 2.08066 13.3283C2.2059 13.313 2.32424 13.2625 2.42192 13.1827C4.24592 11.692 6.24459 12.3093 7.33325 13.0127V3.23332ZM8.66659 3.23332V13.0127C9.75525 12.3087 11.7533 11.692 13.5779 13.1827C13.6756 13.2625 13.7939 13.313 13.9192 13.3283C14.0444 13.3436 14.1714 13.323 14.2855 13.269C14.3995 13.2149 14.4958 13.1297 14.5633 13.023C14.6307 12.9164 14.6666 12.7928 14.6666 12.6667V4.40199C14.6666 4.30323 14.6446 4.2057 14.6023 4.11647C14.56 4.02723 14.4984 3.94851 14.4219 3.88599C12.3466 2.18999 10.1299 2.55266 8.66659 3.23332Z" fill="white"/>
</svg>
