<svg width="32" height="32" viewBox="0 0 32 32" fill="none" xmlns="http://www.w3.org/2000/svg">
<g id="majesticons:bookmark-plus-line">
<path id="Vector" d="M16 11V14M16 14V17M16 14H13M16 14H19M21 7H11C10.4696 7 9.96086 7.21071 9.58579 7.58579C9.21071 7.96086 9 8.46957 9 9V24.138C9.00003 24.2256 9.02305 24.3116 9.06676 24.3874C9.11047 24.4633 9.17334 24.5264 9.24907 24.5703C9.32481 24.6143 9.41075 24.6375 9.49831 24.6378C9.58587 24.6381 9.67197 24.6154 9.748 24.572L15.008 21.567C15.3101 21.3944 15.6521 21.3036 16 21.3036C16.3479 21.3036 16.6899 21.3944 16.992 21.567L22.252 24.573C22.3281 24.6165 22.4143 24.6392 22.5019 24.6388C22.5896 24.6385 22.6756 24.6151 22.7514 24.5711C22.8271 24.527 22.89 24.4638 22.9336 24.3878C22.9773 24.3118 23.0001 24.2256 23 24.138V9C23 8.46957 22.7893 7.96086 22.4142 7.58579C22.0391 7.21071 21.5304 7 21 7Z" stroke="white" stroke-width="1.5" stroke-linecap="round" stroke-linejoin="round"/>
</g>
</svg>
