<svg width="40" height="40" viewBox="0 0 40 40" fill="none" xmlns="http://www.w3.org/2000/svg">
<g id="&#208;&#176;&#208;&#178;&#208;&#176;&#209;&#130;&#208;&#176;&#209;&#128;&#208;&#186;&#208;&#176; &#208;&#180;&#208;&#187;&#209;&#143; &#208;&#186;&#208;&#176;&#208;&#189;&#208;&#176;&#208;&#187;&#208;&#176; &#209;&#129; &#208;&#189;&#208;&#190;&#208;&#178;&#208;&#190;&#209;&#129;&#209;&#130;&#209;&#143;&#208;&#188;&#208;&#184; &#208;&#188;&#208;&#184;&#208;&#189;&#208;&#184;&#208;&#188;&#208;&#176;&#208;&#187;&#208;&#184;&#209;&#129;&#209;&#130;&#208;&#184;&#209;&#135;&#208;&#189;&#208;&#176;&#209;&#143; &#208;&#178;&#208;&#181;&#208;&#186;&#209;&#130;&#208;&#190;&#209;&#128;&#208;&#189;&#208;&#176;&#209;&#143;">
<rect x="0.5" y="0.5" width="39" height="39" rx="19.5" stroke="#0D9387"/>
<path id="Vector" fill-rule="evenodd" clip-rule="evenodd" d="M20 8C19.4797 8.00002 18.9739 8.16952 18.5612 8.4822C18.1484 8.79489 17.8517 9.23329 17.717 9.72941C17.5823 10.2255 17.6173 10.7517 17.8164 11.2262C18.0155 11.7007 18.3676 12.0972 18.8182 12.354V13.8333H15.2727C11.4909 13.8333 10.5455 16.9448 10.5455 18.5V26.6667C10.5455 27.4448 11.0182 29 12.9091 29H14.0909V24.3333C14.0909 24.0239 14.2154 23.7272 14.4371 23.5084C14.6587 23.2896 14.9593 23.1667 15.2727 23.1667H24.7273C25.0407 23.1667 25.3413 23.2896 25.5629 23.5084C25.7846 23.7272 25.9091 24.0239 25.9091 24.3333V29H27.0909C28.9818 29 29.4545 27.4448 29.4545 26.6667V18.5C29.4545 14.7667 26.3026 13.8333 24.7273 13.8333H21.1818V12.354C21.6324 12.0972 21.9845 11.7007 22.1836 11.2262C22.3827 10.7517 22.4177 10.2255 22.283 9.72941C22.1483 9.23329 21.8516 8.79489 21.4388 8.4822C21.0261 8.16952 20.5203 8.00002 20 8ZM23.5455 29V25.5H21.1818V29H23.5455ZM18.8182 29V25.5H16.4545V29H18.8182ZM30.6364 25.5V19.6667C31.4246 19.6667 33 20.1333 33 22V23.1667C33 23.9448 32.5273 25.5 30.6364 25.5ZM9.36364 19.6667V25.5C7.47273 25.5 7 23.9448 7 23.1667V22C7 20.1333 8.57536 19.6667 9.36364 19.6667ZM16.4545 18.5C16.1411 18.5 15.8405 18.6229 15.6189 18.8417C15.3972 19.0605 15.2727 19.3572 15.2727 19.6667C15.2727 19.9761 15.3972 20.2728 15.6189 20.4916C15.8405 20.7104 16.1411 20.8333 16.4545 20.8333H16.4557C16.7692 20.8333 17.0698 20.7104 17.2914 20.4916C17.513 20.2728 17.6375 19.9761 17.6375 19.6667C17.6375 19.3572 17.513 19.0605 17.2914 18.8417C17.0698 18.6229 16.7692 18.5 16.4557 18.5H16.4545ZM22.3636 19.6667C22.3636 19.3572 22.4881 19.0605 22.7098 18.8417C22.9314 18.6229 23.232 18.5 23.5455 18.5H23.5466C23.8601 18.5 24.1607 18.6229 24.3823 18.8417C24.6039 19.0605 24.7285 19.3572 24.7285 19.6667C24.7285 19.9761 24.6039 20.2728 24.3823 20.4916C24.1607 20.7104 23.8601 20.8333 23.5466 20.8333H23.5455C23.232 20.8333 22.9314 20.7104 22.7098 20.4916C22.4881 20.2728 22.3636 19.9761 22.3636 19.6667Z" fill="#0D9387"/>
</g>
</svg>
