<svg width="20" height="16" viewBox="0 0 20 16" fill="none" xmlns="http://www.w3.org/2000/svg">
<g id="Group">
<path id="Vector" d="M9 1H19M9 5H14" stroke="black" stroke-width="1.5" stroke-linecap="round" stroke-linejoin="round"/>
<path id="Vector_2" d="M4 1H2C1.44772 1 1 1.44772 1 2V4C1 4.55228 1.44772 5 2 5H4C4.55228 5 5 4.55228 5 4V2C5 1.44772 4.55228 1 4 1Z" stroke="black" stroke-width="1.5" stroke-linecap="round" stroke-linejoin="round"/>
<path id="Vector_3" d="M9 11H19M9 15H14" stroke="black" stroke-width="1.5" stroke-linecap="round" stroke-linejoin="round"/>
<path id="Vector_4" d="M4 11H2C1.44772 11 1 11.4477 1 12V14C1 14.5523 1.44772 15 2 15H4C4.55228 15 5 14.5523 5 14V12C5 11.4477 4.55228 11 4 11Z" stroke="black" stroke-width="1.5" stroke-linecap="round" stroke-linejoin="round"/>
</g>
</svg>
