<svg width="12" height="8" viewBox="0 0 12 8" fill="none" xmlns="http://www.w3.org/2000/svg">
<g id="Group">
<path id="Vector" d="M6 0.5C2.8465 0.5 1.3165 3.3415 1.045 3.904C1.03049 3.93392 1.02295 3.96674 1.02295 4C1.02295 4.03326 1.03049 4.06608 1.045 4.096C1.316 4.6585 2.846 7.5 6 7.5C9.154 7.5 10.6835 4.6585 10.955 4.096C10.9695 4.06608 10.9771 4.03326 10.9771 4C10.9771 3.96674 10.9695 3.93392 10.955 3.904C10.684 3.3415 9.154 0.5 6 0.5Z" stroke="black" stroke-opacity="0.5" stroke-linecap="round" stroke-linejoin="round"/>
<path id="Vector_2" d="M6 5.5C6.82843 5.5 7.5 4.82843 7.5 4C7.5 3.17157 6.82843 2.5 6 2.5C5.17157 2.5 4.5 3.17157 4.5 4C4.5 4.82843 5.17157 5.5 6 5.5Z" stroke="black" stroke-opacity="0.5" stroke-linecap="round" stroke-linejoin="round"/>
</g>
</svg>
