<svg width="20" height="21" viewBox="0 0 20 21" fill="none" xmlns="http://www.w3.org/2000/svg">
<g id="Group">
<path id="Vector" d="M16 14V17M16 17V20M16 17H19M16 17H13" stroke="black" stroke-width="2" stroke-linecap="round" stroke-linejoin="round"/>
<path id="Vector_2" fill-rule="evenodd" clip-rule="evenodd" d="M3 0H9V6C9 6.79565 9.31607 7.55871 9.87868 8.12132C10.4413 8.68393 11.2044 9 12 9H18V11.341C16.8432 10.9314 15.5887 10.8864 14.4055 11.2119C13.2224 11.5375 12.1675 12.218 11.3831 13.1617C10.5987 14.1055 10.1226 15.267 10.0189 16.4897C9.91512 17.7125 10.1888 18.9376 10.803 20H3C2.20435 20 1.44129 19.6839 0.87868 19.1213C0.316071 18.5587 0 17.7956 0 17V3C0 2.20435 0.316071 1.44129 0.87868 0.87868C1.44129 0.316071 2.20435 0 3 0ZM18 6.828V7H12C11.7348 7 11.4804 6.89464 11.2929 6.70711C11.1054 6.51957 11 6.26522 11 6V0H11.172C11.9672 0.000435018 12.7298 0.316597 13.292 0.879L17.122 4.707C17.6843 5.26964 18.0001 6.03256 18 6.828Z" fill="black"/>
</g>
</svg>
