<svg width="24" height="24" viewBox="0 0 24 24" fill="none" xmlns="http://www.w3.org/2000/svg">
<g id="Property 1=Variant2">
<path id="Vector" fill-rule="evenodd" clip-rule="evenodd" d="M12 2H6C5.20435 2 4.44129 2.31607 3.87868 2.87868C3.31607 3.44129 3 4.20435 3 5V19C3 19.7956 3.31607 20.5587 3.87868 21.1213C4.44129 21.6839 5.20435 22 6 22H18C18.7956 22 19.5587 21.6839 20.1213 21.1213C20.6839 20.5587 21 19.7956 21 19V11H15C14.2044 11 13.4413 10.6839 12.8787 10.1213C12.3161 9.55871 12 8.79565 12 8V2ZM21 9V8.828C20.9996 8.03276 20.6834 7.27023 20.121 6.708L16.293 2.878C15.7304 2.31572 14.9674 1.9999 14.172 2H14V8C14 8.26522 14.1054 8.51957 14.2929 8.70711C14.4804 8.89464 14.7348 9 15 9H21Z" fill="black"/>
</g>
</svg>
