<svg width="24" height="24" viewBox="0 0 24 24" fill="none" xmlns="http://www.w3.org/2000/svg">
<g id="Property 1=majesticons:file-plus-line">
<path id="Vector" d="M19 16V19M19 19V22M19 19H22M19 19H16M20 9V8.828C19.9999 8.29761 19.7891 7.78899 19.414 7.414L15.586 3.586C15.211 3.2109 14.7024 3.00011 14.172 3H14M20 9H16C15.4696 9 14.9609 8.78929 14.5858 8.41421C14.2107 8.03914 14 7.53043 14 7V3M20 9V12M14 3H6C5.46957 3 4.96086 3.21071 4.58579 3.58579C4.21071 3.96086 4 4.46957 4 5V19C4 19.5304 4.21071 20.0391 4.58579 20.4142C4.96086 20.7893 5.46957 21 6 21H12" stroke="black" stroke-width="1.5" stroke-linecap="round" stroke-linejoin="round"/>
</g>
</svg>
