<svg width="22" height="18" viewBox="0 0 22 18" fill="none" xmlns="http://www.w3.org/2000/svg">
<g id="Group">
<path id="Vector" d="M7 17H4V15M7 17V13H11M7 17H11M4 15H3C2.46957 15 1.96086 14.7893 1.58579 14.4142C1.21071 14.0391 1 13.5304 1 13V12C1 11.4696 1.21071 10.9609 1.58579 10.5858C1.96086 10.2107 2.46957 10 3 10H4M4 15V10M11 13H15V17M11 13V17M11 17H15M15 17H18V15M18 15H19C19.5304 15 20.0391 14.7893 20.4142 14.4142C20.7893 14.0391 21 13.5304 21 13V12C21 11.4696 20.7893 10.9609 20.4142 10.5858C20.0391 10.2107 19.5304 10 19 10H18M18 15V10M11 6H8C6.93913 6 5.92172 6.42143 5.17157 7.17157C4.42143 7.92172 4 8.93913 4 10M11 6H14C15.0609 6 16.0783 6.42143 16.8284 7.17157C17.5786 7.92172 18 8.93913 18 10M11 6V2M4 11.5V13.5" stroke="black" stroke-width="1.5" stroke-linecap="round" stroke-linejoin="round"/>
<path id="Vector_2" d="M11 3C11.5523 3 12 2.55228 12 2C12 1.44772 11.5523 1 11 1C10.4477 1 10 1.44772 10 2C10 2.55228 10.4477 3 11 3Z" stroke="black" stroke-width="1.5" stroke-linecap="round" stroke-linejoin="round"/>
</g>
</svg>
