<svg width="24" height="24" viewBox="0 0 24 24" fill="none" xmlns="http://www.w3.org/2000/svg">
<g id="Property 1=Variant2">
<path id="Vector" fill-rule="evenodd" clip-rule="evenodd" d="M12 3C11.5597 3.00002 11.1318 3.1453 10.7825 3.41332C10.4333 3.68133 10.1822 4.0571 10.0682 4.48236C9.95429 4.90761 9.98384 5.35857 10.1523 5.76532C10.3208 6.17206 10.6187 6.51185 11 6.732V8H8C4.8 8 4 10.667 4 12V19C4 19.667 4.4 21 6 21H7V17C7 16.7348 7.10536 16.4804 7.29289 16.2929C7.48043 16.1054 7.73478 16 8 16H16C16.2652 16 16.5196 16.1054 16.7071 16.2929C16.8946 16.4804 17 16.7348 17 17V21H18C19.6 21 20 19.667 20 19V12C20 8.8 17.333 8 16 8H13V6.732C13.3813 6.51185 13.6792 6.17206 13.8477 5.76532C14.0162 5.35857 14.0457 4.90761 13.9318 4.48236C13.8178 4.0571 13.5667 3.68133 13.2175 3.41332C12.8682 3.1453 12.4403 3.00002 12 3ZM15 21V18H13V21H15ZM11 21V18H9V21H11ZM21 18V13C21.667 13 23 13.4 23 15V16C23 16.667 22.6 18 21 18ZM3 13V18C1.4 18 1 16.667 1 16V15C1 13.4 2.333 13 3 13ZM9 12C8.73478 12 8.48043 12.1054 8.29289 12.2929C8.10536 12.4804 8 12.7348 8 13C8 13.2652 8.10536 13.5196 8.29289 13.7071C8.48043 13.8946 8.73478 14 9 14H9.001C9.26622 14 9.52057 13.8946 9.70811 13.7071C9.89564 13.5196 10.001 13.2652 10.001 13C10.001 12.7348 9.89564 12.4804 9.70811 12.2929C9.52057 12.1054 9.26622 12 9.001 12H9ZM14 13C14 12.7348 14.1054 12.4804 14.2929 12.2929C14.4804 12.1054 14.7348 12 15 12H15.001C15.2662 12 15.5206 12.1054 15.7081 12.2929C15.8956 12.4804 16.001 12.7348 16.001 13C16.001 13.2652 15.8956 13.5196 15.7081 13.7071C15.5206 13.8946 15.2662 14 15.001 14H15C14.7348 14 14.4804 13.8946 14.2929 13.7071C14.1054 13.5196 14 13.2652 14 13Z" fill="black"/>
</g>
</svg>
